<?xml version="1.0" standalone="no"?>
<!DOCTYPE svg PUBLIC "-//W3C//DTD SVG 20010904//EN"
 "http://www.w3.org/TR/2001/REC-SVG-20010904/DTD/svg10.dtd">
<svg version="1.0" xmlns="http://www.w3.org/2000/svg"
 width="500.000000pt" height="500.000000pt" viewBox="0 0 500.000000 500.000000"
 preserveAspectRatio="xMidYMid meet">
<metadata>
Created by potrace 1.10, written by Peter Selinger 2001-2011
</metadata>
<g transform="translate(0.000000,500.000000) scale(0.100000,-0.100000)"
fill="#000000" stroke="none">
<path d="M2093 4700 c-57 -34 -78 -105 -62 -210 18 -118 106 -238 192 -261
169 -45 237 188 109 380 -66 99 -164 137 -239 91z"/>
<path d="M2640 4628 c-61 -31 -92 -93 -94 -185 -2 -130 60 -223 149 -223 161
0 209 298 65 401 -42 30 -71 32 -120 7z"/>
<path d="M1705 4399 c-17 -4 -44 -22 -60 -39 -60 -63 -32 -194 61 -287 78 -78
193 -118 266 -94 130 43 126 205 -8 331 -81 76 -184 112 -259 89z"/>
<path d="M2368 4181 c-80 -26 -136 -61 -191 -120 -77 -82 -108 -173 -108 -312
0 -282 191 -481 371 -386 57 30 80 74 80 152 0 107 65 206 145 221 19 3 64 0
99 -7 62 -12 66 -11 118 14 93 45 135 147 93 226 -37 72 -184 172 -309 210
-87 27 -217 28 -298 2z"/>
<path d="M1716 3870 c-56 -17 -106 -83 -106 -140 0 -103 109 -193 232 -192
202 1 242 218 58 315 -55 28 -124 35 -184 17z"/>
<path d="M2768 3283 l-3 -128 -47 -3 -48 -3 0 -45 c0 -24 -3 -44 -6 -44 -3 0
-23 13 -44 30 -74 59 -124 74 -245 74 -100 1 -115 -2 -166 -27 -87 -42 -143
-98 -185 -182 -36 -72 -36 -76 -32 -167 4 -75 9 -103 31 -144 57 -111 180
-196 300 -209 81 -8 188 9 257 42 56 27 140 104 140 129 0 7 -36 32 -80 54
l-80 40 -46 -35 c-42 -32 -51 -35 -112 -35 -95 0 -154 40 -164 110 l-3 25 254
3 254 2 -6 73 c-4 39 -9 85 -13 100 -6 26 -4 28 17 25 l24 -3 5 -185 c5 -179
6 -187 33 -235 47 -86 131 -123 247 -109 53 6 130 31 130 42 0 3 -12 45 -27
94 l-26 89 -43 -7 c-67 -10 -75 11 -72 177 l3 134 73 3 72 3 0 89 0 90 -75 0
-75 0 0 130 0 130 -120 0 -119 0 -3 -127z m-316 -291 c26 -15 48 -50 48 -77 0
-12 -23 -15 -130 -15 -71 0 -130 2 -130 5 0 3 6 21 14 40 29 67 123 90 198 47z"/>
<path d="M1307 3153 c-4 -3 -7 -37 -7 -75 l0 -68 29 0 c41 0 55 -22 49 -78 -7
-60 -2 -72 29 -72 60 0 123 79 123 154 l0 46 55 0 c52 0 59 -3 104 -45 40 -38
59 -47 120 -61 101 -23 107 -32 68 -94 -39 -60 -63 -72 -195 -100 -221 -46
-327 -120 -367 -253 -24 -80 -25 -78 62 -75 l78 3 6 37 c15 92 87 144 256 183
163 38 235 113 237 245 0 81 -28 145 -86 194 -68 59 -105 66 -343 66 -116 0
-215 -3 -218 -7z"/>
<path d="M1636 2994 c-9 -23 -8 -24 12 -24 24 0 32 8 25 26 -7 19 -29 18 -37
-2z"/>
<path d="M2142 2293 c-12 -2 -27 -14 -34 -26 -18 -32 -31 -603 -15 -637 12
-25 13 -25 163 -28 82 -1 168 1 190 6 37 7 39 10 42 47 5 70 -10 79 -135 85
l-108 5 -3 75 c-1 41 2 81 6 88 5 7 39 15 76 19 78 7 104 30 91 80 -9 37 -20
43 -90 43 -65 0 -85 11 -85 45 0 44 14 50 127 55 l108 5 3 55 c4 85 5 85 -165
87 -81 0 -158 -1 -171 -4z"/>
<path d="M1586 2268 c-21 -29 -20 -49 5 -138 11 -41 34 -138 50 -215 33 -155
64 -262 82 -286 18 -24 53 -32 92 -19 40 13 47 28 104 245 53 200 86 374 77
408 -6 24 -11 27 -51 27 -43 0 -46 -2 -65 -42 -11 -24 -34 -106 -50 -183 -30
-137 -44 -173 -54 -144 -3 8 -22 86 -41 174 -39 172 -51 195 -106 195 -17 0
-34 -8 -43 -22z"/>
<path d="M2570 2264 c-6 -14 -10 -41 -10 -59 0 -37 7 -41 75 -47 l30 -3 0
-267 c0 -196 3 -270 12 -279 18 -18 71 -15 91 5 14 14 18 51 23 279 4 144 7
263 8 263 0 1 22 4 47 7 54 6 60 11 69 58 12 63 -3 69 -181 69 l-154 0 -10
-26z"/>
</g>
</svg>
