<?xml version="1.0" standalone="no"?>
<!DOCTYPE svg PUBLIC "-//W3C//DTD SVG 20010904//EN"
 "http://www.w3.org/TR/2001/REC-SVG-20010904/DTD/svg10.dtd">
<svg version="1.0" xmlns="http://www.w3.org/2000/svg"
 width="900.000000pt" height="1002.000000pt" viewBox="0 0 900.000000 1002.000000"
 preserveAspectRatio="xMidYMid meet">
<metadata>
Created by potrace 1.10, written by Peter Selinger 2001-2011
</metadata>
<g transform="translate(0.000000,1002.000000) scale(0.100000,-0.100000)"
fill="#000000" stroke="none">
<path d="M4000 9861 c-55 -13 -116 -50 -173 -107 -69 -69 -100 -134 -131 -270
-58 -259 53 -645 251 -876 84 -97 235 -218 274 -218 5 0 20 -6 32 -14 42 -27
153 -38 231 -25 154 28 249 123 318 321 19 54 22 84 22 213 0 151 -15 250 -50
333 -8 18 -14 37 -14 43 0 19 -91 199 -131 259 -51 77 -136 168 -213 228 -58
46 -83 60 -169 97 -43 19 -193 28 -247 16z"/>
<path d="M5650 9626 c-30 -7 -75 -23 -99 -35 -50 -26 -145 -112 -166 -150 -40
-75 -85 -174 -85 -189 0 -9 -6 -35 -14 -57 -31 -92 -27 -333 8 -450 58 -193
154 -327 281 -390 53 -27 70 -30 150 -30 68 0 102 5 135 20 174 75 288 262
321 524 36 293 -102 624 -301 723 -47 23 -144 50 -168 47 -4 -1 -32 -7 -62
-13z"/>
<path d="M2785 8899 c-135 -14 -260 -100 -318 -219 -22 -45 -47 -145 -47 -188
0 -42 26 -165 47 -217 27 -69 84 -177 125 -238 67 -99 256 -277 328 -310 8 -4
29 -16 45 -27 17 -11 37 -23 45 -26 8 -3 29 -12 45 -19 128 -56 210 -75 325
-75 125 0 182 17 278 80 93 63 141 146 167 293 7 43 -17 188 -42 252 -36 93
-108 219 -168 295 -49 62 -189 192 -252 233 -210 137 -382 186 -578 166z"/>
<path d="M4955 8271 c-38 -4 -90 -13 -115 -20 -128 -35 -157 -44 -183 -57 -16
-8 -33 -14 -37 -14 -30 0 -223 -107 -305 -168 -109 -82 -253 -244 -314 -351
-143 -255 -207 -569 -181 -888 6 -76 18 -169 26 -208 26 -116 45 -188 60 -223
8 -18 14 -39 14 -47 0 -7 6 -26 14 -42 8 -15 33 -68 57 -116 166 -341 503
-546 801 -486 131 26 266 106 324 192 69 103 69 101 66 242 -2 130 15 268 43
345 28 78 49 126 62 141 7 8 13 18 13 22 0 17 69 108 115 152 56 53 89 72 170
99 66 21 246 22 329 0 34 -8 77 -19 97 -25 139 -36 315 31 461 175 88 87 127
161 155 291 33 156 -28 310 -181 458 -48 46 -239 197 -250 197 -3 0 -33 19
-68 43 -62 42 -273 149 -355 181 -119 45 -143 52 -303 91 -75 18 -403 28 -515
16z"/>
<path d="M2820 7285 c-159 -37 -284 -127 -348 -250 -55 -106 -65 -196 -33
-305 61 -213 224 -367 481 -456 78 -27 355 -27 415 0 122 54 170 85 221 139
161 173 166 389 14 592 -85 114 -190 190 -350 252 -102 39 -293 53 -400 28z"/>
<path d="M5960 5858 c0 -7 0 -171 0 -364 0 -211 -4 -362 -10 -378 l-10 -26
-133 0 c-90 0 -137 -4 -145 -12 -8 -8 -12 -55 -12 -145 0 -158 -3 -160 -90
-80 -94 88 -231 174 -328 208 -333 117 -643 118 -942 2 -188 -73 -407 -249
-527 -424 -54 -79 -127 -223 -138 -274 -4 -17 -13 -48 -20 -70 -27 -78 -38
-245 -25 -378 6 -67 17 -140 24 -162 8 -22 19 -58 26 -80 80 -254 301 -505
572 -648 88 -46 232 -93 333 -108 98 -15 329 -15 450 0 100 13 298 64 332 87
12 8 28 14 35 14 22 0 169 89 228 138 111 92 240 245 240 287 0 17 -29 35
-157 98 -87 43 -165 82 -173 87 -50 29 -159 80 -173 80 -9 0 -51 -31 -92 -69
-47 -42 -106 -84 -153 -107 l-77 -39 -170 0 -170 0 -79 40 c-99 50 -169 116
-202 192 -27 61 -47 154 -37 178 4 13 108 15 764 15 l758 0 12 22 c15 27 3
282 -16 353 -66 241 -67 235 20 235 86 0 79 43 85 -522 3 -277 8 -508 12 -514
4 -6 14 -42 22 -81 42 -204 188 -383 372 -457 125 -50 366 -65 539 -33 98 18
235 66 275 96 32 24 30 56 -9 166 -10 29 -40 126 -94 305 -39 127 -38 126
-120 95 -82 -30 -129 -32 -173 -4 -42 26 -69 70 -83 137 -16 79 -15 788 2 799
6 4 104 10 217 13 l205 5 0 275 0 275 -215 5 -215 5 -5 385 -5 385 -362 3
c-287 2 -363 0 -363 -10z m-1068 -1204 c106 -27 198 -112 241 -222 21 -53 22
-88 1 -96 -25 -9 -747 -7 -763 3 -17 11 -7 80 19 131 27 53 87 117 134 145 91
53 249 70 368 39z"/>
<path d="M1497 5093 c-10 -9 -9 -441 1 -446 4 -3 31 0 60 6 47 10 58 9 90 -8
61 -34 77 -65 77 -153 -1 -42 -7 -104 -14 -138 -16 -70 -10 -106 24 -140 80
-80 306 57 403 243 42 80 59 161 65 298 l2 60 128 3 c126 3 129 2 195 -29 53
-26 89 -55 172 -139 112 -114 113 -115 255 -145 226 -48 281 -65 333 -103 42
-30 44 -77 6 -113 -14 -13 -41 -55 -60 -94 -53 -106 -93 -148 -184 -194 -44
-22 -101 -42 -127 -45 -27 -4 -79 -13 -118 -21 -38 -8 -124 -26 -190 -40 -150
-30 -281 -63 -320 -80 -16 -7 -52 -20 -80 -30 -170 -58 -337 -156 -448 -263
-58 -56 -143 -168 -179 -237 -70 -133 -120 -359 -86 -393 9 -9 71 -12 218 -12
243 0 234 -4 244 108 12 136 104 288 231 382 97 71 245 134 405 171 418 98
563 159 700 298 116 118 165 234 176 420 18 294 -80 524 -291 686 -103 79
-154 102 -315 145 -40 11 -1363 14 -1373 3z"/>
<path d="M2526 4639 c-33 -39 -44 -78 -25 -90 19 -12 86 -11 110 1 26 15 24
47 -7 87 -31 41 -45 41 -78 2z"/>
<path d="M4010 2428 c-54 -28 -79 -69 -92 -151 -5 -34 -14 -280 -19 -547 -5
-267 -14 -643 -21 -837 -14 -445 -7 -507 67 -553 47 -29 155 -33 450 -16 149
9 347 16 440 16 199 0 237 8 255 50 15 37 9 245 -8 276 -6 11 -28 34 -49 50
l-38 29 -287 -3 c-198 -3 -293 0 -307 8 -42 22 -51 70 -51 259 0 97 5 196 11
220 15 65 36 77 153 85 56 4 121 11 146 16 25 5 68 9 96 10 39 0 55 5 71 23
48 52 55 73 55 161 -1 93 -17 138 -56 152 -12 4 -110 10 -218 13 -196 6 -198
6 -224 32 -32 32 -46 90 -34 143 30 134 14 129 380 136 187 4 292 10 306 18
39 21 47 63 41 201 -6 151 -19 190 -70 214 -31 15 -86 17 -494 17 -456 0 -459
0 -503 -22z"/>
<path d="M3322 2415 c-32 -27 -122 -198 -122 -231 0 -10 -6 -43 -14 -73 -8
-31 -22 -92 -31 -136 -23 -108 -44 -199 -60 -265 -7 -30 -21 -91 -30 -135 -16
-75 -27 -122 -56 -237 -25 -102 -66 -87 -92 34 -38 168 -49 217 -87 373 -7 28
-16 70 -21 95 -4 25 -12 59 -17 75 -6 17 -17 68 -26 115 -10 47 -24 119 -33
160 -8 41 -17 84 -19 95 -2 11 -15 38 -30 61 -43 67 -110 91 -219 79 -80 -8
-116 -41 -141 -123 -20 -70 -12 -145 29 -287 28 -96 60 -210 67 -245 4 -19 13
-57 20 -85 38 -156 42 -174 86 -387 8 -38 20 -98 28 -135 8 -38 22 -106 31
-153 9 -47 23 -103 29 -125 12 -37 25 -81 60 -205 7 -25 21 -72 31 -105 23
-81 64 -164 97 -197 22 -22 39 -27 100 -33 42 -4 98 -2 131 4 118 22 159 78
212 291 9 36 23 88 30 115 8 28 21 79 31 115 9 36 22 85 29 110 7 25 20 74 30
110 10 36 24 88 31 115 45 160 40 141 87 330 20 79 43 189 62 300 20 115 40
219 59 318 28 135 13 258 -32 271 -10 2 -62 8 -118 11 -98 7 -101 6 -132 -20z"/>
<path d="M5399 2416 c-33 -16 -59 -66 -75 -143 -40 -192 3 -238 220 -231 116
3 116 3 116 -226 0 -99 -5 -233 -11 -296 -15 -155 -13 -1070 3 -1122 6 -20 22
-48 35 -60 22 -21 34 -23 121 -23 140 1 155 14 188 165 9 43 14 131 14 260 1
261 28 1218 36 1253 10 45 37 54 173 60 115 5 126 7 149 30 21 22 26 38 34
127 10 112 2 153 -35 188 -21 20 -34 21 -484 25 -333 3 -468 2 -484 -7z"/>
</g>
</svg>
