<?xml version="1.0" standalone="no"?>
<!DOCTYPE svg PUBLIC "-//W3C//DTD SVG 20010904//EN"
 "http://www.w3.org/TR/2001/REC-SVG-20010904/DTD/svg10.dtd">
<svg version="1.0" xmlns="http://www.w3.org/2000/svg"
 width="450.000000pt" height="425.000000pt" viewBox="0 0 450.000000 425.000000"
 preserveAspectRatio="xMidYMid meet">
<metadata>
Created by potrace 1.10, written by Peter Selinger 2001-2011
</metadata>
<g transform="translate(0.000000,425.000000) scale(0.100000,-0.100000)"
fill="#000000" stroke="none">
<path d="M1935 4178 c-84 -29 -130 -116 -123 -232 9 -139 105 -283 230 -345
177 -89 345 22 325 214 -25 235 -252 426 -432 363z"/>
<path d="M2765 4091 c-145 -35 -223 -205 -167 -364 24 -66 90 -140 140 -155
152 -46 277 53 290 230 12 175 -122 323 -263 289z"/>
<path d="M1318 3785 c-59 -22 -86 -44 -109 -91 -25 -54 -21 -100 16 -174 73
-145 264 -260 435 -262 108 -1 175 38 206 118 14 37 15 51 5 91 -52 205 -366
387 -553 318z"/>
<path d="M2440 3539 c-97 -8 -218 -45 -300 -92 -85 -48 -174 -143 -215 -229
-121 -257 -22 -596 210 -713 55 -27 69 -30 160 -30 92 0 104 2 153 29 76 42
88 64 94 168 4 62 12 101 28 134 67 137 163 180 335 149 75 -13 101 -14 136
-5 121 32 209 126 209 223 0 84 -96 176 -273 261 -192 91 -347 122 -537 105z"/>
<path d="M1337 3125 c-64 -21 -133 -87 -142 -138 -29 -155 194 -302 405 -268
144 23 228 117 200 223 -16 60 -98 138 -176 168 -76 30 -217 37 -287 15z"/>
<path d="M2918 2403 l-3 -158 -72 -3 -73 -3 0 -59 c0 -61 -8 -72 -30 -45 -6 7
-35 27 -63 43 -322 181 -760 70 -894 -225 -22 -48 -26 -73 -26 -143 -1 -77 3
-92 34 -160 60 -126 198 -235 359 -281 68 -20 308 -17 395 4 91 23 186 71 247
126 82 73 84 70 -59 131 -82 35 -130 50 -138 44 -91 -68 -136 -84 -234 -84
-122 0 -219 59 -233 142 l-5 28 376 2 376 3 3 57 c2 37 -4 82 -17 123 l-19 65
39 0 39 0 0 -196 c0 -218 10 -273 60 -343 62 -85 142 -116 300 -116 113 1 231
23 246 47 6 9 -57 198 -75 226 -6 10 -14 10 -35 2 -50 -18 -93 -13 -115 16
-19 25 -21 40 -21 195 l0 168 108 3 107 3 0 110 0 110 -107 3 -108 3 0 159 0
160 -180 0 -179 0 -3 -157z m-478 -355 c46 -24 77 -59 82 -93 3 -19 -3 -20
-189 -23 -130 -2 -193 1 -193 8 0 27 30 78 55 94 65 43 176 49 245 14z"/>
<path d="M740 2156 l0 -93 41 1 c59 1 72 -20 64 -106 -6 -61 -5 -67 14 -78 50
-26 166 44 202 124 10 23 19 60 19 84 l0 42 70 0 c80 0 112 -13 178 -71 33
-29 60 -41 112 -53 38 -9 77 -16 87 -16 9 0 37 -7 60 -16 45 -18 54 -36 28
-63 -9 -9 -26 -31 -38 -50 -32 -50 -82 -71 -233 -97 -269 -46 -395 -92 -492
-179 -60 -54 -112 -150 -112 -207 l0 -38 109 0 109 0 7 38 c15 86 81 155 185
196 25 10 104 31 175 46 222 48 309 93 353 182 91 183 -29 389 -256 437 -32 7
-175 11 -367 11 l-315 0 0 -94z"/>
<path d="M1242 2058 c-21 -21 -14 -38 16 -38 38 0 46 9 25 32 -19 21 -25 22
-41 6z"/>
<path d="M2015 1164 c-64 -9 -73 -14 -85 -46 -16 -46 -35 -753 -21 -784 15
-34 75 -46 184 -39 51 4 157 7 237 8 80 2 151 6 158 10 7 5 12 30 12 62 0 43
-5 58 -22 75 -20 18 -35 20 -175 20 -140 0 -153 2 -163 19 -14 27 -12 151 3
181 11 23 21 26 113 35 56 6 108 16 117 23 21 17 28 52 18 87 l-7 30 -112 6
c-67 4 -117 11 -127 19 -19 16 -19 59 1 88 14 21 23 22 147 23 73 1 146 4 162
8 30 6 30 6 30 78 0 45 -5 77 -13 85 -9 9 -66 13 -220 14 -114 1 -220 0 -237
-2z"/>
<path d="M1165 1135 c-33 -32 -32 -71 4 -181 16 -49 48 -163 71 -254 51 -201
94 -327 124 -365 21 -26 29 -28 85 -28 84 0 109 19 140 109 67 198 134 416
152 497 51 230 48 247 -51 247 -58 0 -60 -1 -84 -38 -26 -42 -38 -77 -95 -290
-21 -79 -42 -146 -45 -149 -4 -4 -10 -2 -15 3 -10 10 -56 165 -91 304 -11 47
-26 98 -32 113 -23 58 -119 77 -163 32z"/>
<path d="M2635 1140 c-15 -16 -35 -72 -35 -95 1 -30 22 -40 92 -45 l73 -5 2
-335 2 -335 23 -18 c17 -15 33 -18 66 -14 82 9 91 38 93 287 1 96 4 229 8 295
l6 120 72 6 c87 6 103 18 103 73 0 78 4 76 -257 80 -212 4 -233 3 -248 -14z"/>
</g>
</svg>
